<?xml version="1.0" standalone="no"?>
<!DOCTYPE svg PUBLIC "-//W3C//DTD SVG 20010904//EN"
 "http://www.w3.org/TR/2001/REC-SVG-20010904/DTD/svg10.dtd">
<svg version="1.0" xmlns="http://www.w3.org/2000/svg"
 width="2295.000000pt" height="2869.000000pt" viewBox="0 0 2295.000000 2869.000000"
 preserveAspectRatio="xMidYMid meet">

<g transform="translate(0.000000,2869.000000) scale(0.100000,-0.100000)"
fill="#000000" stroke="none">
<path d="M11014 21522 c-18 -26 -35 -63 -38 -83 -4 -21 -13 -42 -21 -49 -8 -7
-17 -28 -21 -49 -4 -20 -17 -54 -30 -77 -13 -22 -24 -53 -24 -67 0 -14 -8 -34
-19 -44 -10 -10 -22 -37 -26 -60 -3 -23 -15 -51 -25 -62 -9 -12 -20 -38 -24
-60 -3 -21 -15 -50 -26 -64 -11 -14 -20 -34 -20 -45 0 -10 -11 -40 -25 -66
-14 -26 -25 -55 -25 -64 0 -9 -11 -35 -25 -57 -13 -22 -25 -49 -25 -60 0 -11
-9 -37 -20 -57 -11 -20 -25 -58 -31 -83 -7 -26 -18 -49 -25 -52 -7 -2 -18 -29
-24 -58 -6 -29 -17 -59 -25 -65 -8 -7 -17 -28 -21 -49 -3 -20 -14 -47 -24 -61
-9 -14 -21 -41 -25 -60 -4 -19 -15 -48 -25 -65 -10 -16 -21 -47 -25 -67 -4
-21 -13 -42 -21 -49 -8 -6 -19 -30 -24 -53 -6 -22 -19 -57 -29 -76 -10 -19
-22 -51 -26 -70 -4 -19 -14 -43 -22 -52 -8 -9 -19 -36 -24 -59 -5 -23 -19 -53
-29 -67 -11 -13 -20 -37 -20 -52 0 -15 -8 -38 -19 -51 -10 -13 -22 -40 -26
-59 -4 -19 -17 -53 -30 -75 -12 -22 -25 -56 -29 -76 -4 -21 -13 -42 -21 -49
-8 -7 -17 -28 -21 -49 -3 -20 -14 -48 -24 -62 -10 -15 -22 -43 -25 -63 -4 -20
-15 -46 -25 -59 -10 -12 -21 -41 -25 -65 -4 -23 -14 -49 -22 -58 -8 -8 -19
-33 -24 -55 -5 -22 -18 -52 -28 -67 -11 -15 -22 -44 -25 -64 -4 -21 -13 -44
-21 -52 -8 -8 -19 -35 -25 -61 -6 -26 -20 -59 -30 -73 -11 -13 -20 -37 -20
-52 0 -15 -9 -39 -21 -53 -11 -15 -23 -44 -26 -64 -3 -21 -14 -47 -24 -58 -10
-11 -21 -40 -25 -63 -4 -24 -13 -50 -21 -58 -8 -8 -21 -37 -28 -65 -8 -28 -21
-59 -29 -68 -9 -10 -16 -27 -16 -38 0 -11 -11 -42 -25 -69 -14 -27 -25 -56
-25 -64 0 -8 -11 -33 -25 -55 -13 -22 -25 -49 -25 -60 0 -11 -11 -41 -25 -67
-14 -26 -25 -56 -25 -66 0 -11 -8 -30 -19 -43 -10 -13 -24 -48 -31 -76 -6 -29
-15 -53 -19 -53 -11 0 -31 -48 -31 -74 0 -13 -8 -34 -19 -47 -10 -13 -22 -40
-26 -59 -4 -19 -18 -55 -31 -80 -13 -25 -24 -53 -24 -63 0 -10 -9 -30 -19 -45
-11 -15 -24 -50 -31 -79 -6 -28 -17 -54 -24 -56 -7 -3 -16 -23 -19 -45 -4 -21
-16 -51 -27 -65 -11 -14 -20 -34 -20 -45 0 -27 -17 -70 -34 -87 -7 -8 -16 -31
-20 -53 -3 -22 -12 -45 -21 -52 -8 -6 -17 -28 -21 -49 -3 -20 -16 -54 -29 -76
-12 -22 -25 -56 -29 -76 -4 -21 -13 -42 -21 -49 -8 -6 -19 -36 -25 -66 -7 -31
-18 -58 -25 -60 -7 -3 -16 -23 -20 -44 -4 -22 -15 -50 -26 -64 -10 -13 -19
-33 -19 -44 0 -27 -17 -70 -34 -88 -8 -7 -17 -32 -21 -54 -4 -22 -13 -46 -20
-54 -7 -7 -19 -33 -25 -57 -6 -24 -19 -55 -29 -69 -10 -14 -21 -42 -24 -64 -3
-21 -13 -46 -21 -55 -8 -9 -19 -36 -26 -61 -7 -25 -18 -52 -25 -60 -8 -8 -18
-35 -24 -58 -5 -24 -16 -51 -24 -60 -8 -9 -20 -39 -26 -67 -7 -27 -19 -57 -26
-65 -8 -8 -18 -35 -24 -58 -5 -24 -16 -51 -25 -61 -9 -10 -16 -27 -16 -38 0
-11 -11 -40 -24 -65 -13 -25 -27 -60 -31 -78 -4 -19 -16 -46 -25 -60 -10 -14
-21 -41 -24 -61 -4 -21 -15 -48 -25 -60 -10 -13 -21 -42 -24 -63 -4 -22 -10
-42 -15 -45 -15 -10 -32 -49 -32 -74 0 -13 -9 -35 -19 -49 -11 -13 -24 -44
-31 -68 -7 -25 -18 -52 -25 -60 -8 -8 -18 -35 -24 -58 -5 -24 -16 -51 -24 -60
-9 -9 -18 -35 -22 -57 -4 -22 -15 -49 -25 -60 -10 -11 -21 -39 -25 -62 -4 -23
-15 -53 -25 -66 -10 -13 -22 -41 -26 -63 -4 -21 -15 -50 -25 -64 -9 -14 -20
-41 -23 -61 -4 -21 -15 -48 -25 -60 -10 -13 -21 -40 -25 -60 -4 -21 -13 -42
-21 -49 -8 -7 -17 -28 -21 -49 -3 -20 -17 -55 -30 -78 -13 -23 -24 -49 -24
-58 0 -9 -11 -37 -25 -63 -14 -26 -25 -56 -25 -68 0 -12 -9 -33 -20 -46 -10
-14 -24 -44 -29 -67 -5 -23 -16 -50 -25 -60 -9 -10 -16 -26 -16 -37 0 -11 -11
-42 -24 -70 -13 -27 -28 -68 -35 -90 -6 -23 -18 -47 -26 -54 -8 -7 -15 -24
-15 -38 0 -14 -11 -44 -24 -66 -13 -23 -26 -57 -30 -77 -4 -21 -13 -42 -21
-49 -7 -6 -17 -26 -20 -43 -9 -45 -26 -87 -35 -87 -4 0 -14 -24 -20 -52 -7
-29 -18 -56 -25 -60 -7 -4 -16 -24 -20 -45 -4 -20 -18 -57 -31 -82 -13 -25
-24 -55 -24 -67 0 -12 -9 -33 -21 -47 -11 -15 -23 -44 -26 -64 -4 -21 -14 -49
-24 -63 -10 -14 -23 -45 -29 -69 -6 -24 -17 -50 -24 -57 -7 -7 -16 -30 -19
-52 -4 -21 -16 -51 -27 -65 -11 -14 -20 -35 -20 -48 0 -12 -11 -41 -24 -63
-13 -23 -26 -56 -29 -74 -4 -19 -16 -45 -27 -59 -11 -14 -20 -38 -20 -53 0
-15 -9 -39 -20 -53 -11 -14 -23 -40 -26 -59 -4 -18 -17 -52 -30 -75 -13 -23
-24 -53 -24 -66 0 -13 -8 -35 -19 -48 -10 -13 -22 -39 -26 -58 -4 -19 -18 -54
-31 -79 -13 -25 -24 -52 -24 -60 0 -8 -9 -29 -19 -46 -11 -17 -22 -48 -26 -68
-4 -21 -16 -47 -26 -59 -10 -12 -19 -32 -19 -43 0 -12 -11 -42 -25 -68 -14
-26 -25 -55 -25 -64 0 -10 -11 -36 -24 -58 -13 -23 -26 -57 -30 -77 -4 -21
-13 -42 -21 -49 -8 -7 -17 -28 -21 -49 -3 -20 -14 -48 -25 -63 -10 -15 -23
-45 -28 -68 -5 -23 -16 -49 -24 -58 -9 -9 -18 -34 -22 -55 -4 -20 -15 -47 -25
-60 -9 -12 -20 -38 -24 -58 -4 -21 -15 -48 -25 -60 -10 -13 -22 -40 -26 -59
-4 -19 -13 -42 -21 -51 -8 -8 -20 -36 -28 -62 -8 -25 -21 -53 -30 -62 -9 -9
-16 -25 -16 -36 0 -23 -16 -57 -37 -77 -7 -7 -13 -24 -13 -36 0 -13 -9 -34
-19 -48 -11 -13 -24 -43 -30 -66 -7 -23 -16 -42 -21 -42 -4 0 -16 -22 -25 -49
-9 -27 -22 -55 -30 -61 -8 -6 -17 -25 -20 -42 -4 -16 -18 -46 -31 -65 -13 -20
-24 -41 -24 -48 0 -7 -8 -23 -19 -36 -10 -13 -22 -35 -26 -49 -4 -14 -16 -35
-26 -48 -10 -13 -21 -37 -24 -53 -4 -17 -13 -33 -20 -36 -8 -2 -19 -21 -26
-41 -7 -21 -20 -43 -31 -50 -10 -7 -18 -22 -18 -32 0 -10 -11 -31 -24 -47 -13
-15 -26 -38 -30 -50 -4 -13 -11 -23 -17 -23 -5 0 -15 -15 -22 -32 -8 -18 -24
-42 -36 -52 -11 -11 -21 -24 -21 -31 0 -7 -11 -24 -25 -39 -14 -15 -25 -32
-25 -38 0 -6 -9 -20 -20 -32 -44 -46 -70 -77 -70 -82 0 -11 -167 -174 -177
-174 -6 0 -13 -7 -16 -15 -4 -8 -21 -21 -39 -28 -18 -8 -39 -21 -47 -30 -7
-10 -21 -17 -30 -17 -10 0 -32 -11 -51 -25 -19 -14 -41 -25 -50 -25 -10 0 -37
-10 -61 -23 -24 -13 -61 -26 -83 -30 -21 -3 -46 -13 -56 -22 -9 -9 -41 -18
-71 -22 -30 -3 -68 -14 -84 -24 -17 -10 -65 -22 -108 -28 -43 -5 -84 -14 -92
-21 -8 -6 -51 -17 -97 -24 -107 -15 -108 -16 -108 -204 l0 -142 26 -10 c28
-11 3942 -14 3982 -4 22 6 22 9 22 161 0 87 -4 163 -10 174 -9 16 -22 19 -83
19 -69 1 -246 14 -277 22 -8 1 -18 6 -21 11 -3 4 -56 12 -119 18 -68 6 -122
16 -136 26 -13 8 -56 19 -95 24 -40 5 -83 16 -96 24 -13 9 -46 20 -75 25 -28
6 -59 16 -67 24 -9 8 -30 17 -48 21 -18 3 -42 14 -55 24 -13 9 -38 23 -55 30
-18 8 -33 17 -33 22 0 5 -15 15 -32 22 -39 17 -138 112 -173 166 -13 22 -29
42 -34 45 -5 4 -13 21 -16 38 -4 18 -17 50 -29 73 -20 38 -21 54 -20 280 1
219 3 244 21 285 12 25 24 74 28 110 4 36 15 79 25 96 9 17 20 56 24 87 4 31
15 66 25 79 10 13 21 45 26 73 4 27 15 60 26 73 10 14 19 37 19 52 0 15 10 47
23 71 13 24 27 62 30 83 4 22 13 44 21 48 8 5 20 33 26 62 6 30 18 60 26 67 8
6 17 30 21 52 3 22 14 48 23 57 10 10 21 36 25 59 4 22 15 51 25 64 10 13 21
40 25 60 4 20 16 48 26 61 11 13 19 33 19 43 0 11 11 42 25 69 14 27 28 63 31
81 3 18 15 42 25 54 10 12 19 32 19 44 0 12 11 43 24 68 14 25 28 62 32 82 3
20 12 39 19 41 7 3 16 22 20 42 3 20 15 52 26 70 10 18 24 54 30 78 7 25 18
48 25 51 7 2 16 23 19 46 4 23 18 60 31 83 13 22 24 52 24 66 0 14 8 33 19 42
10 9 21 35 25 57 4 22 15 52 25 67 11 15 22 43 25 63 4 20 15 46 25 58 10 12
21 39 25 60 3 22 13 46 21 54 8 8 19 37 25 63 6 27 18 56 26 66 9 9 20 36 25
60 6 23 17 50 25 59 8 9 18 34 21 55 3 22 14 48 24 59 9 11 21 34 25 50 3 17
14 38 22 48 14 16 146 17 2513 17 l2497 0 30 -37 c16 -21 33 -54 37 -73 4 -19
15 -48 25 -65 10 -16 21 -45 25 -64 4 -18 15 -48 25 -65 10 -17 21 -47 25 -66
4 -19 14 -43 22 -52 8 -9 19 -36 24 -60 6 -23 16 -50 24 -58 7 -8 19 -37 26
-65 7 -27 20 -61 30 -75 9 -14 20 -41 23 -61 4 -21 13 -42 21 -49 8 -7 17 -28
21 -49 4 -20 17 -54 30 -77 13 -22 24 -52 24 -66 0 -14 9 -36 19 -50 11 -13
23 -42 27 -64 4 -21 15 -49 24 -61 10 -13 21 -40 25 -60 4 -21 15 -51 25 -68
10 -16 21 -46 25 -65 4 -19 15 -46 25 -60 9 -14 20 -43 24 -64 4 -22 16 -50
26 -63 10 -13 21 -40 25 -60 4 -20 15 -48 26 -61 10 -14 19 -36 19 -49 0 -25
17 -64 31 -74 5 -3 13 -26 18 -52 5 -26 15 -55 24 -65 8 -9 18 -32 22 -51 4
-19 18 -54 31 -79 13 -25 24 -55 24 -67 0 -12 9 -33 19 -47 11 -13 22 -45 26
-71 4 -25 16 -56 26 -68 10 -12 19 -34 19 -49 0 -15 11 -47 23 -71 13 -24 27
-63 31 -87 3 -24 13 -54 21 -66 8 -12 20 -47 25 -78 6 -30 19 -72 30 -93 11
-22 20 -55 20 -75 0 -19 9 -53 21 -74 11 -21 24 -72 29 -114 5 -43 17 -93 27
-112 16 -31 18 -62 18 -251 0 -187 -2 -219 -16 -235 -10 -11 -22 -45 -29 -76
-6 -32 -17 -61 -25 -65 -7 -5 -20 -25 -28 -45 -9 -21 -21 -38 -26 -38 -6 0
-11 -6 -11 -13 0 -22 -80 -101 -147 -147 -35 -23 -65 -45 -68 -50 -3 -5 -18
-11 -34 -15 -16 -3 -35 -13 -41 -21 -7 -7 -31 -19 -54 -25 -22 -6 -48 -17 -57
-25 -9 -8 -41 -19 -72 -24 -31 -5 -67 -16 -80 -24 -13 -9 -52 -19 -88 -22 -35
-3 -91 -15 -124 -25 -42 -14 -109 -21 -227 -27 -92 -4 -171 -11 -175 -16 -4
-4 -9 -80 -11 -168 -3 -125 0 -163 10 -169 20 -13 5022 -11 5034 1 14 14 7
332 -7 341 -6 3 -79 9 -164 12 -111 5 -170 12 -212 26 -32 10 -86 22 -120 25
-35 3 -76 14 -95 26 -18 11 -47 20 -64 20 -17 0 -52 11 -78 25 -26 14 -55 25
-65 25 -9 0 -32 11 -51 25 -19 14 -39 25 -44 25 -11 0 -78 43 -121 76 -11 8
-42 32 -70 52 -70 52 -275 259 -275 277 0 4 -10 18 -22 30 -28 28 -51 58 -81
104 -12 19 -29 44 -37 56 -8 11 -24 36 -35 54 -11 18 -30 46 -42 61 -13 15
-23 34 -23 42 0 8 -9 23 -19 32 -11 10 -22 29 -26 44 -3 14 -17 39 -31 55 -13
16 -24 36 -24 46 0 10 -9 26 -20 36 -11 10 -22 33 -26 51 -3 18 -14 40 -24 49
-11 10 -22 31 -26 49 -3 17 -15 39 -25 48 -10 10 -21 34 -25 53 -3 19 -12 39
-20 46 -8 6 -19 30 -25 53 -6 22 -16 46 -24 51 -7 6 -18 31 -25 55 -7 24 -20
55 -31 68 -10 14 -19 34 -19 46 0 11 -11 39 -25 61 -13 22 -25 50 -25 61 0 12
-9 33 -20 46 -10 14 -23 44 -28 66 -6 23 -17 48 -25 56 -8 9 -18 35 -22 58 -4
24 -15 53 -25 65 -10 13 -21 40 -25 60 -4 20 -15 47 -25 60 -10 12 -21 43 -24
68 -4 25 -11 45 -15 45 -10 0 -27 42 -36 87 -3 17 -13 37 -20 43 -8 6 -19 36
-26 66 -7 30 -16 54 -20 54 -5 0 -16 26 -25 58 -9 31 -22 64 -30 72 -7 9 -18
38 -24 65 -6 27 -17 57 -25 65 -8 8 -18 35 -24 58 -5 24 -16 51 -24 60 -8 9
-18 35 -22 57 -4 21 -15 51 -25 65 -10 14 -22 44 -26 65 -4 22 -15 50 -24 62
-10 13 -21 40 -25 60 -4 21 -15 52 -25 68 -9 17 -20 45 -24 63 -3 19 -15 45
-26 59 -11 14 -20 38 -20 53 0 15 -9 39 -20 53 -11 13 -25 48 -31 75 -6 28
-17 56 -24 62 -8 7 -17 28 -21 49 -3 20 -17 55 -30 78 -13 23 -24 50 -24 60 0
10 -11 40 -25 67 -14 27 -25 58 -25 69 0 10 -8 30 -19 43 -10 13 -22 41 -26
61 -4 21 -13 45 -21 53 -7 9 -19 38 -26 65 -8 28 -21 61 -30 75 -9 14 -19 44
-23 67 -4 24 -13 47 -21 51 -7 4 -18 29 -23 55 -5 26 -16 55 -24 65 -9 9 -21
40 -28 67 -6 28 -17 55 -24 60 -8 6 -16 29 -20 50 -4 22 -16 52 -26 68 -11 15
-23 47 -28 72 -5 25 -16 54 -24 63 -9 10 -20 37 -26 60 -5 24 -16 51 -24 60
-9 9 -19 35 -23 57 -4 22 -15 51 -24 65 -9 14 -20 42 -24 64 -4 21 -16 50 -26
65 -10 14 -21 44 -25 66 -4 22 -13 48 -22 57 -8 9 -19 36 -24 59 -5 23 -19 53
-29 67 -11 13 -20 37 -20 52 0 15 -9 39 -20 53 -11 13 -25 48 -31 75 -6 28
-17 56 -24 62 -8 7 -17 28 -21 49 -4 20 -17 54 -30 77 -13 22 -24 51 -24 63 0
13 -9 35 -19 50 -11 15 -23 45 -27 66 -4 22 -15 51 -25 65 -9 14 -20 43 -24
63 -4 21 -14 44 -21 52 -7 7 -18 34 -24 60 -6 25 -19 58 -29 73 -11 15 -22 45
-26 67 -4 22 -13 48 -22 57 -8 9 -19 36 -24 59 -5 23 -19 53 -29 67 -11 13
-20 36 -20 51 0 14 -11 44 -25 66 -13 22 -25 50 -25 62 0 12 -11 43 -25 69
-14 26 -25 57 -25 69 0 12 -9 32 -19 44 -11 12 -23 41 -27 64 -3 23 -15 53
-25 66 -11 13 -19 31 -19 40 0 9 -11 39 -24 67 -13 28 -27 66 -31 85 -4 19
-16 45 -26 58 -11 13 -19 35 -19 49 0 13 -9 39 -19 56 -11 17 -25 52 -31 79
-7 26 -16 47 -20 47 -10 0 -30 47 -30 71 0 11 -11 41 -25 67 -14 26 -25 57
-25 69 0 12 -7 29 -16 38 -9 8 -23 41 -31 73 -8 31 -21 60 -28 65 -7 4 -16 26
-20 50 -4 23 -16 53 -25 67 -10 14 -22 44 -26 65 -4 22 -15 51 -25 64 -11 13
-19 34 -19 46 0 12 -10 42 -23 66 -13 24 -27 59 -30 77 -4 18 -15 45 -26 60
-10 15 -22 45 -26 66 -4 22 -15 51 -26 64 -10 14 -19 37 -19 52 0 15 -9 39
-20 52 -10 14 -23 44 -29 67 -5 23 -16 52 -24 64 -8 12 -18 38 -22 56 -4 19
-18 54 -31 79 -13 25 -24 55 -24 67 0 12 -9 34 -21 48 -11 15 -23 44 -26 64
-3 21 -14 48 -23 60 -10 13 -21 43 -24 68 -4 24 -14 49 -23 53 -8 5 -19 30
-24 55 -4 26 -17 59 -28 74 -10 16 -22 45 -26 67 -3 21 -14 47 -24 58 -10 10
-21 37 -24 59 -3 22 -12 48 -21 57 -8 10 -19 37 -25 60 -5 24 -17 52 -26 61
-9 10 -19 36 -22 57 -4 22 -17 59 -30 83 -13 24 -23 51 -23 60 0 9 -7 27 -16
40 -9 12 -22 45 -29 73 -8 27 -20 57 -28 67 -8 9 -17 33 -20 54 -3 20 -15 50
-26 65 -10 15 -23 46 -27 67 -4 22 -15 51 -25 64 -11 13 -19 34 -19 46 0 12
-10 42 -23 66 -13 24 -27 59 -30 77 -4 19 -16 45 -27 59 -11 14 -20 38 -20 53
0 15 -9 39 -20 53 -11 14 -24 45 -29 69 -4 24 -18 59 -29 78 -12 19 -22 46
-22 58 0 13 -8 35 -19 48 -10 13 -22 41 -26 61 -4 20 -15 47 -25 60 -10 13
-22 43 -25 66 -4 23 -15 52 -25 64 -10 13 -21 40 -25 60 -4 21 -15 49 -24 63
-10 14 -21 43 -25 65 -4 22 -14 47 -21 55 -7 8 -18 35 -25 59 -6 24 -20 60
-31 80 -10 20 -19 45 -19 57 0 12 -9 33 -20 47 -11 14 -23 40 -26 59 -4 18
-15 47 -24 63 -10 17 -21 47 -25 68 -4 20 -16 48 -26 61 -10 13 -22 42 -28 65
-5 23 -15 51 -23 64 -8 12 -18 38 -22 58 -3 21 -15 48 -25 60 -10 13 -22 43
-25 66 -4 23 -16 52 -27 64 -10 12 -19 33 -19 47 0 14 -11 44 -24 66 -13 23
-26 57 -30 77 -4 21 -13 42 -21 49 -8 6 -19 36 -25 65 -6 29 -17 59 -25 65 -8
7 -17 28 -21 49 -3 20 -14 47 -23 61 -10 14 -23 48 -30 77 -7 29 -19 57 -26
63 -7 6 -17 30 -20 53 -4 23 -16 53 -26 66 -10 12 -21 39 -25 60 -3 20 -14 48
-25 63 -10 15 -19 35 -19 44 0 9 -11 40 -24 68 -14 29 -28 64 -32 80 -9 39
-37 46 -177 46 l-122 -1 -31 -47z m-342 -3109 c10 -9 18 -20 18 -25 0 -5 9
-18 20 -30 11 -12 23 -38 26 -57 4 -20 17 -54 30 -77 13 -22 24 -51 24 -63 0
-13 9 -34 19 -47 11 -14 22 -44 26 -67 4 -23 14 -50 22 -59 8 -9 19 -36 24
-60 6 -23 17 -50 26 -60 8 -9 19 -38 24 -63 5 -26 18 -58 29 -72 11 -14 20
-38 20 -53 0 -15 8 -38 18 -51 11 -13 24 -46 31 -74 7 -27 19 -57 27 -66 8 -9
18 -34 21 -55 3 -21 17 -53 30 -72 12 -19 23 -47 23 -63 0 -15 7 -35 16 -44 9
-8 22 -38 29 -66 8 -28 20 -58 28 -68 8 -9 18 -33 21 -54 4 -21 15 -52 26 -70
10 -18 21 -48 25 -67 4 -19 16 -46 25 -60 10 -14 21 -42 24 -62 4 -21 13 -44
21 -52 8 -8 19 -35 25 -61 6 -25 19 -58 29 -73 11 -15 22 -43 25 -63 4 -21 13
-42 21 -49 8 -7 17 -28 21 -49 3 -20 17 -56 30 -80 13 -24 24 -56 24 -71 0
-15 9 -35 20 -45 10 -9 22 -37 26 -61 3 -24 14 -53 24 -64 10 -12 22 -40 25
-63 4 -23 14 -49 22 -58 8 -10 20 -40 28 -69 8 -29 20 -59 28 -69 8 -9 18 -33
21 -55 4 -21 16 -50 26 -65 10 -14 21 -42 24 -62 4 -21 13 -42 21 -49 8 -7 17
-28 21 -49 4 -20 17 -56 30 -81 13 -25 24 -54 24 -66 0 -12 8 -32 18 -45 10
-13 23 -46 30 -74 7 -27 17 -52 22 -55 12 -8 30 -57 30 -84 0 -13 9 -31 19
-40 10 -9 22 -37 25 -61 4 -23 15 -53 25 -64 11 -12 22 -38 26 -59 4 -20 15
-50 25 -67 9 -16 20 -45 24 -63 3 -19 15 -45 26 -59 11 -14 20 -35 20 -47 0
-12 11 -42 25 -68 14 -26 25 -58 25 -71 0 -13 9 -36 20 -49 10 -14 24 -47 30
-74 6 -27 17 -56 25 -64 8 -8 18 -35 24 -58 5 -24 16 -51 25 -61 9 -10 16 -26
16 -37 0 -10 14 -46 30 -79 16 -33 30 -69 30 -80 0 -11 9 -31 20 -45 11 -14
20 -34 20 -46 0 -29 20 -84 30 -84 5 0 14 -24 20 -54 6 -30 17 -57 25 -59 7
-3 18 -30 25 -61 6 -30 17 -60 25 -66 8 -7 17 -28 21 -49 3 -20 17 -55 30 -78
13 -23 24 -53 24 -66 0 -13 9 -36 20 -50 11 -14 24 -46 29 -71 4 -24 15 -51
23 -60 9 -8 19 -31 22 -51 4 -20 18 -57 32 -82 13 -25 24 -53 24 -61 0 -8 9
-29 20 -46 28 -46 43 -147 24 -166 -13 -13 -272 -15 -2196 -18 -2469 -2 -2233
-11 -2222 81 3 29 15 64 25 79 11 15 22 42 26 60 3 18 16 51 29 74 13 22 24
50 24 61 0 11 8 31 18 44 10 13 23 46 30 74 7 27 19 57 26 65 8 8 17 31 21 50
4 19 16 46 26 59 11 13 19 33 19 45 0 11 11 43 24 71 14 27 27 62 30 77 3 15
13 33 21 42 8 8 18 30 21 48 4 18 17 51 29 73 12 22 25 56 29 76 4 21 13 42
21 49 8 7 17 28 21 49 3 20 15 49 26 64 11 16 22 45 25 65 3 20 14 48 24 61
10 12 21 39 25 60 4 20 13 43 21 52 8 10 20 40 28 68 7 28 20 57 28 65 8 8 18
32 22 53 4 21 15 52 25 68 9 17 20 46 24 66 4 20 15 44 26 54 11 10 20 28 20
40 0 12 11 42 23 66 13 24 27 61 31 81 3 20 13 41 21 48 8 7 17 28 21 49 4 20
17 54 30 77 13 22 24 50 24 61 0 11 8 31 19 44 10 13 22 39 26 58 4 19 18 54
31 79 13 25 24 54 24 66 0 12 9 32 20 46 11 14 20 34 20 45 0 11 14 47 30 80
16 33 30 68 30 78 0 10 9 30 19 45 11 15 22 44 25 64 4 21 13 41 20 45 7 5 18
31 25 58 7 28 19 57 26 65 8 8 18 35 24 58 5 24 16 51 24 60 8 9 18 32 22 51
4 19 18 54 31 79 13 25 24 55 24 67 0 12 9 30 19 39 10 9 22 37 25 61 4 23 15
53 26 65 10 12 21 39 25 60 4 21 13 44 21 51 8 6 17 29 20 51 4 22 17 54 29
72 12 18 25 50 29 72 4 21 14 47 23 56 8 9 19 35 24 58 5 23 18 53 28 68 11
15 22 44 26 65 3 21 12 40 20 43 8 3 17 26 21 50 3 24 14 55 24 67 10 13 21
40 25 60 4 20 15 47 25 60 10 12 21 41 25 64 3 23 15 53 26 67 10 13 19 31 19
39 0 8 10 34 23 58 13 24 27 59 30 77 4 19 15 46 26 60 10 15 21 44 25 64 4
21 13 44 21 52 8 8 19 36 25 62 6 27 18 56 26 66 9 9 20 36 25 60 6 23 16 50
23 58 8 8 17 31 21 50 4 19 16 47 26 61 10 14 22 45 28 68 5 23 16 50 25 60 9
10 16 26 16 37 0 11 13 46 30 79 16 33 30 65 30 71 0 10 20 34 29 34 2 0 13
-7 23 -17z"/>
</g>
</svg>
